<svg xmlns="http://www.w3.org/2000/svg" viewBox="0 0 64 64" id="credit-card">
  <path d="M63.45,12.87a2.75,2.75,0,0,0-1.84-1.11L9.91,3.9A2.8,2.8,0,0,0,6.7,6.25l-.88,5.81a0,0,0,0,0,0,0s0,.06,0,.09l-.71,4.73a.11.11,0,0,0,0,.08.24.24,0,0,0,0,.12l-.65,4.26H2.82A2.82,2.82,0,0,0,0,24.18V57.32a2.83,2.83,0,0,0,2.82,2.82H55.11a2.82,2.82,0,0,0,2.82-2.82V49.53A2.78,2.78,0,0,0,59,47.72l3.35-22h0s0-.06,0-.08l.73-4.83L64,15A2.8,2.8,0,0,0,63.45,12.87ZM6,17.63l24.59,3.74H5.41Zm51,39.69a1.83,1.83,0,0,1-1.83,1.83H2.82A1.83,1.83,0,0,1,1,57.32v-5.4h56Zm0-32.35V46H1V24.18a1.83,1.83,0,0,1,1.83-1.83H55.11a1.83,1.83,0,0,1,1.83,1.83ZM58,47.57a1.32,1.32,0,0,1-.08.33V25.53l3.35.51Zm5-32.76-.81,5.35L6.87,11.76,7.68,6.4A1.74,1.74,0,0,1,8.4,5.21a1.82,1.82,0,0,1,1.36-.34l51.7,7.86a1.82,1.82,0,0,1,1.2.72A1.8,1.8,0,0,1,63,14.81Z"></path>
  <path d="M6.72 30.82H17.17a.49.49 0 1 0 0-1H6.72a.49.49 0 1 0 0 1zM25.2 35.65H6.72a.49.49 0 1 0 0 1H25.2a.49.49 0 0 0 0-1zM46.9 28.31a5 5 0 0 0-3.11 1.07 5.08 5.08 0 1 0 0 8 5 5 0 0 0 3.11 1.07 5.08 5.08 0 0 0 0-10.15zM55 29.16a.5.5 0 0 0-.5.5V40a.5.5 0 0 0 .5.5.51.51 0 0 0 .5-.5V29.66A.5.5 0 0 0 55 29.16zM55 41.6a.5.5 0 0 0-.5.5v.5a.5.5 0 0 0 .5.5.51.51 0 0 0 .5-.5v-.5A.51.51 0 0 0 55 41.6z"></path>
</svg>
